<?xml version="1.0" encoding="UTF-8" standalone="no"?>
<svg
   xmlns:dc="http://purl.org/dc/elements/1.1/"
   xmlns:cc="http://creativecommons.org/ns#"
   xmlns:rdf="http://www.w3.org/1999/02/22-rdf-syntax-ns#"
   xmlns:svg="http://www.w3.org/2000/svg"
   xmlns="http://www.w3.org/2000/svg"
   xmlns:sodipodi="http://sodipodi.sourceforge.net/DTD/sodipodi-0.dtd"
   xmlns:inkscape="http://www.inkscape.org/namespaces/inkscape"
   version="1.1"
   viewBox="0 0 791.88 603.1"
   xml:space="preserve"
   id="svg893"
   sodipodi:docname="kcllogo.svg"
   inkscape:export-filename="/Users/tom/Documents/Academia/cai4caiwebsite/static/media/kcllogo.png"
   inkscape:export-xdpi="124.15852"
   inkscape:export-ydpi="124.15852"
   inkscape:version="1.0.1 (c497b03c, 2020-09-10)"><sodipodi:namedview
   pagecolor="#ffffff"
   bordercolor="#666666"
   borderopacity="1"
   objecttolerance="10"
   gridtolerance="10"
   guidetolerance="10"
   inkscape:pageopacity="0"
   inkscape:pageshadow="2"
   inkscape:window-width="1465"
   inkscape:window-height="885"
   id="namedview895"
   showgrid="false"
   inkscape:zoom="0.89912613"
   inkscape:cx="395.94"
   inkscape:cy="338.31871"
   inkscape:window-x="2104"
   inkscape:window-y="25"
   inkscape:window-maximized="0"
   inkscape:current-layer="svg893" />
  <metadata
   id="metadata833">
    <rdf:RDF>
      <cc:Work
   rdf:about="">
        <dc:format>image/svg+xml</dc:format>

        <dc:type
   rdf:resource="http://purl.org/dc/dcmitype/StillImage" />

        <dc:title />

      </cc:Work>

    </rdf:RDF>

  </metadata>

  <defs
   id="defs841">
    <clipPath
   id="clipPath887">
      <path
   d="m0.074686 194.45h593.91v452.33h-593.91z"
   id="path835" />

    </clipPath>

    <clipPath
   id="clipPath897">
      <path
   d="m0 194.45h595v453.1h-595z"
   id="path838" />

    </clipPath>

  </defs>

  

  <g
   transform="matrix(1.3333 0 0 -1.3333 -.099582 862.37)"
   id="g891">
    

    
      <g
   clip-path="url(#clipPath887)"
   id="g845">
        <path
   d="m0.074686 194.45h593.91v452.33h-593.91z"
   fill="#ea2629"
   id="path843" />

      </g>

    

    
      <g
   clip-path="url(#clipPath897)"
   fill="#fff"
   id="g889">
        <path
   d="m289.16 459.96c0.7954 0 1.2709 0.3187 1.592 1.1103l5.3998 17.632c0.4755 1.4302 0 2.2256-0.9535 2.2256-0.478 0-0.7941-0.1568-1.4302-1.109-0.9535-1.2734-2.2256-3.1792-3.1767-3.1792-0.636 0-0.9547 0.1569-1.4314 0.6348-4.4464 5.0837-10.167 6.5139-15.251 6.5139-23.509 0-44.004-24.941-44.004-48.139 0-13.341 8.1009-20.967 19.858-20.967 4.9256 0 9.3706 0.9523 16.206 3.8128 1.587 0.6336 3.1729 1.2709 4.4463 1.2709 1.5883 0 1.7489-2.0676 1.9057-4.7638 0-0.951 0.6348-1.4314 1.2734-1.4314 0.6336 0 1.2672 0.1593 1.5859 0.7916l6.6719 19.382c0.6349 1.5884-0.1568 2.385-1.1091 2.385-0.9547 0-1.592-0.4805-2.3837-1.7501-5.0861-8.5752-17.477-15.251-27.484-15.251-7.7848 0-11.281 5.8802-11.281 14.299 0 20.178 18.271 46.07 33.84 46.07 8.101 0 14.296-4.9231 14.296-15.248 0-0.7954-0.1593-1.9095-0.1593-2.7024 0-0.9548 0.6373-1.5871 1.5896-1.5871"
   id="path847" />

        <path
   d="m321.41 462.5c3.6521 0 5.2392-2.8605 5.2392-6.9882 0-12.392-12.709-35.905-21.92-35.905-3.6571 0-5.2442 2.5431-5.2442 6.6708 0 13.506 12.71 36.223 21.925 36.223zm-0.478 3.972c-15.093 0-27.802-18.111-27.802-36.383 0-8.0998 4.1289-14.772 11.915-14.772 15.252 0 27.959 19.701 27.959 36.381 0 8.1022-4.1289 14.774-12.072 14.774"
   id="path849" />

        <path
   d="m359.69 478.7c0-0.3149-0.1606-0.9523-0.478-1.5858-8.1022-18.748-15.884-36.378-23.672-55.127-0.473-1.1128-1.1128-2.8604-1.1128-4.1301 0-1.4278 1.2759-2.8568 3.0198-2.8568 1.1128 0 2.5431 0.1569 3.8152 0.6324 4.9231 1.7476 8.8939 4.4475 12.23 8.4233 0.3174 0.3162 0.6361 0.7905 0.6361 1.4303 0 0.7892-0.3187 1.2672-0.9535 1.2672-0.3175 0-0.6349-0.1569-1.1129-0.478-1.5883-1.1104-3.6521-3.1754-7.1462-5.0824-0.3174-0.1594-0.956-0.4755-1.2709-0.4755-0.3174 0-0.4755 0.1568-0.4755 0.4755 0 0.4767 0.1581 0.7941 0.3149 1.2684l25.097 57.989c0.4805 1.1116 0.6385 1.7477 0.6385 2.3838 0 0.6323-0.4755 0.9522-1.2696 0.9522-1.2722 0-3.6522-0.1593-5.5604-0.3199-1.5871-0.1568-5.2442-0.3137-7.6255-0.6323-0.9547-0.1594-1.5895-0.7954-1.5895-1.4303 0-0.7954 0.6348-1.2734 1.4314-1.2734 1.2672-0.1568 3.3373-0.3136 4.4476-0.6348 0.4755-0.1568 0.6361-0.4755 0.6361-0.7954"
   id="path851" />

        <path
   d="m385.75 478.7c0-0.3149-0.1568-0.9523-0.4767-1.5858-8.1035-18.748-15.887-36.378-23.672-55.127-0.4743-1.1128-1.1079-2.8604-1.1079-4.1301 0-1.4278 1.2722-2.8568 3.0149-2.8568 1.114 0 2.5418 0.1569 3.8115 0.6324 4.9292 1.7476 8.8988 4.4475 12.236 8.4233 0.3175 0.3162 0.6311 0.7905 0.6311 1.4303 0 0.7892-0.3136 1.2672-0.9522 1.2672-0.3137 0-0.6324-0.1569-1.1079-0.478-1.5883-1.1104-3.6571-3.1754-7.1487-5.0824-0.3211-0.1594-0.9547-0.4755-1.2734-0.4755-0.3186 0-0.478 0.1568-0.478 0.4755 0 0.4767 0.1594 0.7941 0.3199 1.2684l25.098 57.989c0.4768 1.1116 0.6374 1.7477 0.6374 2.3838 0 0.6323-0.4793 0.9522-1.2734 0.9522-1.2672 0-3.6509-0.1593-5.5554-0.3199-1.5933-0.1568-5.2455-0.3137-7.6317-0.6323-0.9485-0.1594-1.5871-0.7954-1.5871-1.4303 0-0.7954 0.6386-1.2734 1.4302-1.2734 1.2722-0.1568 3.3385-0.3136 4.4513-0.6348 0.4768-0.1568 0.6336-0.4755 0.6336-0.7954"
   id="path853" />

        <path
   d="m413.39 444.87c-4.4488-1.429-8.5802-2.5418-11.28-2.858 3.0211 6.0384 6.3571 10.483 10.012 14.141 2.0638 2.2219 5.5567 5.0836 8.8951 5.0836 2.3813 0 3.6559-1.4302 3.6559-4.1314 0-5.5616-4.7699-10.166-11.283-12.235zm6.3521-18.901c0.3211 0.4755 0.6385 0.9485 0.6385 1.5883 0 0.7929-0.6385 1.429-1.4289 1.429-0.478 0-0.956-0.3211-1.2734-0.6361-3.1755-3.336-7.7823-7.6254-13.343-7.6254-4.1302 0-6.5152 3.0173-6.5152 7.9404 0 3.4978 1.2697 6.8325 2.385 9.3756 3.4978 0.6336 10.327 2.0638 13.82 3.1791 11.596 3.6497 17.633 9.5312 17.633 16.837 0 4.9243-3.4941 7.1487-8.4147 7.1487-14.302 0-33.843-19.697-33.843-38.761 0-6.5151 4.2882-11.122 10.805-11.122 8.8927 0 14.616 4.4488 19.537 10.646"
   id="path855" />

        <path
   d="m498.86 444.87c-4.4476-1.429-8.574-2.5418-11.274-2.858 3.0173 6.0384 6.352 10.483 10.005 14.141 2.0664 2.2219 5.5579 5.0836 8.8939 5.0836 2.3838 0 3.6547-1.4302 3.6547-4.1314 0-5.5616-4.765-10.166-11.28-12.235zm6.3582-18.901c0.3137 0.4755 0.6361 0.9485 0.6361 1.5883 0 0.7929-0.6361 1.429-1.4315 1.429-0.4742 0-0.9547-0.3211-1.2734-0.6361-3.1741-3.336-7.7823-7.6254-13.345-7.6254-4.1264 0-6.5089 3.0173-6.5089 7.9404 0 3.4978 1.2671 6.8325 2.3825 9.3756 3.4953 0.6336 10.324 2.0638 13.823 3.1791 11.593 3.6497 17.633 9.5312 17.633 16.837 0 4.9243-3.4965 7.1487-8.4221 7.1487-14.3 0-33.835-19.697-33.835-38.761 0-6.5151 4.1289-11.122 10.801-11.122 8.8913 0 14.612 4.4488 19.54 10.646"
   id="path857" />

        <path
   d="m442.78 401.97c-8.5802 0-13.506 3.8153-13.506 7.9442 0 4.9243 5.5604 8.4233 11.124 10.328 2.3812-1.2709 5.8728-2.8605 8.5777-4.4488 4.4463-2.6986 5.243-4.1289 5.243-6.5151 0-4.2845-4.4526-7.3081-11.44-7.3081zm7.7823 36.065c-2.5393 0-3.8115 2.2244-3.8115 5.5591 0 2.7024 0.951 6.0359 3.1767 10.01 3.1779 5.7198 7.3105 9.0557 11.278 9.0557 2.5431 0 4.1326-1.5908 4.1326-4.4512 0-3.0174-0.9534-6.8289-3.3347-11.118-4.4513-7.4674-8.1047-9.0557-11.441-9.0557zm20.968 16.681c0 2.8568-0.4755 3.9708-0.4755 5.0837 0 1.1091 1.2734 1.907 3.1816 1.907 2.0651 0 3.6497-1.5896 5.5567-1.5896 1.5895 0 2.8604 1.2696 2.8604 3.1791 0 1.9033-1.4314 2.858-3.6521 2.858-2.0688 0-4.4501-0.6361-6.9906-2.2269-0.6386-0.3137-1.2734-0.7917-2.0651-0.7917-0.3212 0-0.9548 0.1606-1.4327 0.478-1.9021 1.1091-3.9709 1.9045-7.9429 1.9045-5.2442 0-12.073-2.7011-16.524-8.7382-3.173-4.4476-3.8078-7.3068-3.8078-10.484 0-2.8617 0.9523-5.2455 1.7439-6.6732 0.1606-0.3162 0.6374-0.7942 0.6374-1.1128 0-0.6349-0.9548-0.951-2.8605-1.4303-3.3335-0.7941-7.6242-3.0148-7.6242-7.1487 0-3.1766 1.7476-5.0836 5.0823-7.4686-6.0383-1.5871-16.046-5.5567-16.046-12.389 0-6.6732 8.4221-11.753 20.972-11.753 12.077 0 20.491 5.0799 20.491 13.024 0 4.2895-3.9683 8.1022-10.96 11.595-7.15 3.4991-12.073 5.8816-12.073 8.579 0 2.385 1.907 3.499 5.3998 3.499 1.9095 0 4.4525-0.6385 6.3583-0.6385 5.7185 0 13.501 1.7501 18.266 11.917 1.2734 2.8567 1.9058 5.716 1.9058 8.4196"
   id="path859" />

        <path
   d="m78.191 287.78h437.39v5.7571h-437.39z"
   id="path861" />

        <path
   d="m78.191 261.88h437.39v11.19h-437.39z"
   id="path863" />

        <path
   d="m435.33 520.92c0 6.5562 4.7974 7.1935 8.9499 7.5147 0.8004 0 1.2784 0.7979 1.2784 1.7576 0 0.7991-0.478 1.4377-1.5946 1.4377h-32.296c-1.1178 0-1.9194-0.6386-1.9194-1.5958 0-1.1203 0.8016-1.9207 1.9194-1.9207 6.3981-0.478 11.509-1.597 11.509-7.8321v-9.7553c0-2.7148-0.9609-4.1537-2.5567-5.4321-5.9152-4.3169-11.99-4.9542-16.943-4.9542-20.147 0-29.256 16.784-29.256 33.889 0 23.02 14.545 35.33 30.532 35.33 14.707 0 24.3-6.3932 29.733-17.424 0.6435-1.2797 1.2821-1.7589 2.2431-1.7589 0.7966 0 1.4352 0.7991 1.4352 1.7589v17.266c0 0.9584-0.6386 1.597-1.4352 1.597-0.961 0-1.4427-0.6386-1.7614-1.597-0.4817-1.9195-1.439-3.1991-2.8791-3.1991-0.9573 0-2.3987 0.8016-3.3559 1.4377-6.5525 3.8389-12.149 6.7156-23.979 6.7156-19.503 0-43.803-10.71-43.803-39.648 0-30.051 22.701-39.325 42.528-39.325 17.742 0 28.777 8.7943 31.652 11.19v14.548"
   id="path865" />

        <path
   d="m455 562.16c1.2758 0 2.8779 0.6373 3.3559 1.9182 0.1593-0.3224 0.3199-0.8004 0.3199-1.2809 0-3.1928-2.558-6.2338-6.8749-7.9914-0.6386-0.3199-1.1166-0.7991-1.1166-1.5995 0-0.7967 0.7967-1.2771 1.7564-1.1178 7.0342 1.2796 10.869 7.6752 10.869 13.75 0 5.4347-3.0322 8.3114-7.3503 8.3114-2.8779 0-6.7143-1.4378-6.7143-6.2339 0-3.8376 2.8754-5.7558 5.7546-5.7558"
   id="path867" />

        <path
   d="m514.62 555.13c0.8016 0 1.4377 0.641 1.2783 1.6008l-2.3949 16.786c-0.1618 1.1178-0.6435 1.4389-1.4427 1.4389-0.4792 0-0.9572-0.3211-1.2759-1.1215-0.4817-1.2759-1.2833-2.5555-2.8766-2.5555-2.7174 0-6.2388 2.8767-13.91 2.8767-9.9159 0-23.023-5.1161-23.023-18.862 0-14.39 11.514-19.506 21.426-23.022 10.867-3.8363 18.862-6.3968 18.862-17.266 0-10.711-8.3138-14.707-16.625-14.707-8.7931 0-18.706 4.1575-22.544 17.107-0.3174 1.1166-0.7979 1.7564-1.9157 1.7564-1.1202 0-1.7576-0.6398-1.7576-2.0787v-18.543c0-1.1203 0.6374-1.7576 1.5958-1.7576 0.6398 0 1.1178 0.3174 1.5996 1.119 0.4779 1.1154 1.4364 2.8767 3.0384 2.8767 3.1979 0 9.4279-5.5952 20.78-5.5952 10.712 0 27.019 3.9994 27.019 23.339 0 7.9952-3.1966 18.384-22.703 23.982-13.747 3.9945-18.064 8.9524-18.064 15.825 0 6.077 4.1588 11.031 13.114 11.031 6.5512 0 13.427-3.036 18.225-12.949 0.4792-0.9585 0.9597-1.2796 1.5958-1.2796"
   id="path869" />

        <path
   d="m246.05 560.88c0 6.0745 1.7588 9.1105 7.8346 9.9109 1.1203 0.1581 1.7588 0.6386 1.7588 1.5983 0 0.8004-0.6385 1.2796-1.7588 1.2796h-28.137c-1.1216 0-1.7589-0.4792-1.7589-1.2796 0-0.9597 0.6373-1.4402 1.7589-1.5983 6.0745-0.8004 7.8333-3.8364 7.8333-9.9109v-52.436c0-6.0757-1.7588-9.1117-7.8333-9.9121-1.1216-0.1593-1.7589-0.6386-1.7589-1.5983 0-0.8004 0.6373-1.2808 1.7589-1.2808h28.137c1.1203 0 1.7588 0.4804 1.7588 1.2808 0 0.9597-0.6385 1.439-1.7588 1.5983-6.0758 0.8004-7.8346 3.8364-7.8346 9.9121v52.436"
   id="path871" />

        <path
   d="m344.69 559.44c0.3162 7.8358 1.7589 10.552 7.8334 11.352 1.1165 0.1581 1.7601 0.6386 1.7601 1.5983 0 0.8004-0.6436 1.2796-1.7601 1.2796h-24.135c-0.6448 0-1.1228-0.6386-1.1228-1.4389 0-0.6386 0.478-1.2809 1.2809-1.439 5.1123-0.8004 8.7881-1.9169 9.4316-11.352 0.7979-11.03 0.9598-42.204 0.9598-42.204l-50.36 56.434h-19.982c-1.1203 0-1.7601-0.4792-1.7601-1.2796 0-0.9597 0.6398-1.4402 1.7601-1.5983 3.3559-0.4792 7.8296-2.0763 7.8296-7.3528 0-15.826 0-36.611-0.6398-53.556-0.3187-7.8321-1.7564-10.549-7.8308-11.35-1.1191-0.1593-1.7602-0.6386-1.7602-1.5983 0-0.8004 0.6411-1.2808 1.7602-1.2808h24.141c0.6386 0 1.1178 0.6423 1.1178 1.4389 0 0.6411-0.4792 1.2809-1.2771 1.4402-5.1173 0.8004-8.7956 1.917-9.4366 11.35-0.6373 11.031-0.9585 51.318-0.9585 51.318l58.833-65.547h3.6758s0 46.843 0.6398 63.786"
   id="path873" />

        <path
   d="m114.16 549.85c0.1581 8.9548 1.5983 16.468 19.024 18.867 1.7588 0.3174 2.7185 1.1178 2.7185 2.7149 0 1.2808-0.9597 2.2393-2.3999 2.2393-10.867-0.4792-15.664-0.4792-29.092-0.4792-11.512 0-26.22 0.4792-28.46 0.4792-1.917 0-3.036-0.8004-3.036-2.2393 0-1.2772 0.95972-2.2356 2.7186-2.3975 6.235-0.9597 15.827-2.3974 16.466-20.462 0.15933-5.5952 0.32115-33.255 0.32115-63.306 0-19.345-0.16182-36.29-0.47924-44.122-0.6423-18.069-10.233-19.507-16.47-20.464-1.7564-0.1593-2.7148-1.1203-2.7148-2.3987 0-1.4377 1.1178-2.2381 3.036-2.2381 2.2393 0 16.944 0.4817 28.455 0.4817 13.429 0 20.143 0 31.016-0.4817 1.4377 0 2.3961 0.9585 2.3961 2.2381 0 1.5983-0.9584 2.3987-2.7173 2.7186-17.426 2.3987-20.144 9.9096-20.941 18.863-0.3211 3.8377-0.6423 13.587-0.6423 23.82 0 10.232 0.1631 20.145 0.3212 22.222 0.1581 2.3974 1.439 3.1978 2.7186 3.1978 1.1178 0 2.2356-0.4792 3.036-1.1203 10.872-9.1117 44.283-48.92 63.308-71.939h40.606c1.597 0 2.2356 0.8004 2.2356 2.0788 0 1.4377-0.9598 2.558-2.2356 2.558-7.6728 0.7991-12.47 2.2406-22.06 9.9121-9.9133 7.8321-65.546 74.338-65.546 74.338 4.3156 4.9542 29.893 31.011 44.601 44.282 17.265 15.668 23.98 17.745 31.333 19.506 1.1203 0.3174 1.9182 0.9573 1.9182 2.3975 0 1.4389-0.9597 2.5567-3.1953 2.5567-3.8364 0-15.348-0.4792-22.703-0.4792-12.788 0-23.339 0.4792-25.576 0.4792-1.9194 0-3.3584-0.9585-3.3584-2.5567 0-1.4402 1.2772-2.3975 3.0373-2.7199 2.558-0.478 4.7948-0.7991 7.3566-1.7576 2.5542-0.9597 3.9932-2.0787 3.9932-4.7973 0-2.5568-1.1178-4.7961-2.5555-7.033-3.519-5.4359-7.5147-10.391-13.908-17.107-15.189-15.664-33.893-34.208-40.129-39.325-0.6374-0.4793-1.1178-0.6398-1.5971-0.6398-0.9585 0-1.2796 1.119-1.2796 2.2368 0 1.2796 0.1581 30.376 0.4792 49.878"
   id="path875" />

        <path
   d="m78.35 385.14c-0.63857 0-1.1166-0.4792-1.1166-1.2747 0-0.6423 0.63608-1.2821 1.4365-1.2821 5.2778-0.3174 7.1948-3.8376 7.1948-8.9499v-44.443c0-5.1135-1.917-8.4757-7.1948-8.9499-0.80039 0-1.4365-0.6386-1.4365-1.2846 0-0.7979 0.47799-1.2759 1.1166-1.2759h56.434l3.5152 18.866c0.3224 1.2784-0.3186 2.0775-1.2771 2.0775-0.7992 0-1.4377-0.4804-1.7576-1.2783-4.9567-13.75-12.791-15.346-24.462-15.346-11.83 0-14.386 1.917-14.386 7.3504v46.044c0 5.431 4.6356 6.8724 7.9952 7.033 0.9597 0.1568 1.4377 0.6373 1.4377 1.2784 0 0.7966-0.6423 1.4352-1.6008 1.4352h-25.899"
   id="path877" />

        <path
   d="m154.61 352.04c0 16.626 7.9952 29.256 22.223 29.256 12.628 0 22.54-11.991 22.54-29.256 0-21.259-8.9524-30.53-22.54-30.53-13.269 0-22.223 12.784-22.223 30.53zm22.223-34.851c19.823 0 33.89 13.751 33.89 34.851 0 18.543-13.746 33.57-33.89 33.57-19.504 0-33.57-15.346-33.57-33.57 0-19.822 13.267-34.851 33.57-34.851"
   id="path879" />

        <path
   d="m282.34 317.68 0.3199 55.954c0 5.1123 1.917 8.152 7.1948 8.9499 0.9585 0.1594 1.4364 0.6398 1.4364 1.2821 0 0.7955-0.4779 1.2747-1.119 1.2747h-21.101c-0.7992 0-1.2784-0.4792-1.2784-1.2747 0-0.6423 0.4792-1.1227 1.4402-1.2821 5.2741-0.956 7.8333-2.5542 7.9914-8.9499l0.8004-38.37-42.524 49.877h-18.065c-0.7991 0-1.2784-0.4792-1.2784-1.2747 0-0.8016 0.4793-1.2821 1.439-1.4389 4.4749-0.6411 6.5512-2.0813 6.5512-6.3969l-0.3174-46.839c0-5.1135-1.917-8.152-7.1935-8.9499-0.9585-0.1606-1.439-0.6386-1.439-1.2846 0-0.7979 0.3187-1.2759 1.1191-1.2759h21.101c0.8029 0 1.2809 0.478 1.2809 1.2759 0 0.646-0.478 1.124-1.4402 1.2846-3.6771 0.6361-7.8334 1.5945-7.9939 8.9499l-0.4793 47.161 49.879-58.671h3.6758"
   id="path881" />

        <path
   d="m316.07 374.27c0 6.072 3.1966 6.5513 11.67 6.5513 14.23 0 28.617-6.8699 28.617-28.454 0-21.262-12.149-30.371-27.972-30.371h-3.5239c-4.475 0-8.7906 1.2747-8.7906 9.4279zm-18.225 10.867c-0.6385 0-1.1178-0.4792-1.1178-1.2747 0-0.8016 0.6374-1.2821 1.4402-1.2821 5.2729-0.4767 7.1898-3.8376 7.1898-8.9499v-44.443c0-5.1135-1.9169-8.4757-7.1898-8.9499-0.9609-0.1606-1.4402-0.6386-1.4402-1.2846 0-0.7979 0.4793-1.2759 1.1178-1.2759h32.454c14.067 0 37.409 7.1948 37.409 34.369 0 24.144-18.546 33.091-37.728 33.091h-32.135"
   id="path883" />

        <path
   d="m388.01 352.04c0 16.626 7.9976 29.256 22.222 29.256 12.631 0 22.542-11.991 22.542-29.256 0-21.259-8.9499-30.53-22.542-30.53-13.268 0-22.222 12.784-22.222 30.53zm22.222-34.851c19.825 0 33.894 13.751 33.894 34.851 0 18.543-13.748 33.57-33.894 33.57-19.501 0-33.57-15.346-33.57-33.57 0-19.822 13.269-34.851 33.57-34.851"
   id="path885" />

        <path
   d="m515.58 317.68 0.3199 55.954c0 5.1123 1.922 8.152 7.1936 8.9499 0.9634 0.1594 1.4414 0.6398 1.4414 1.2821 0 0.7955-0.478 1.2747-1.1203 1.2747h-21.104c-0.7979 0-1.2759-0.4792-1.2759-1.2747 0-0.6423 0.478-1.1227 1.4377-1.2821 5.2778-0.956 7.8321-2.5542 7.9902-8.9499l0.8016-38.37-42.524 49.877h-18.063c-0.8041 0-1.2808-0.4792-1.2808-1.2747 0-0.8016 0.4767-1.2821 1.4389-1.4389 4.475-0.6411 6.555-2.0813 6.555-6.3969l-0.3212-46.839c0-5.1135-1.9169-8.152-7.196-8.9499-0.9585-0.1606-1.4364-0.6386-1.4364-1.2846 0-0.7979 0.3199-1.2759 1.1165-1.2759h21.104c0.8017 0 1.2784 0.478 1.2784 1.2759 0 0.646-0.4767 1.124-1.4364 1.2846-3.6808 0.6361-7.8334 1.5945-7.9952 8.9499l-0.4805 47.161 49.879-58.671h3.677"
   id="path887" />

      </g>

    

  </g>

</svg>
